<svg xmlns="http://www.w3.org/2000/svg" xmlns:xlink="http://www.w3.org/1999/xlink"
    xmlns:xodm="http://www.corel.com/coreldraw/odm/2003" xml:space="preserve" width="66.1458mm"
    height="66.1458mm" version="1.1"
    style="shape-rendering:geometricPrecision; text-rendering:geometricPrecision; image-rendering:optimizeQuality; fill-rule:evenodd; clip-rule:evenodd"
    viewBox="0 0 6614.58 6614.58">
    <defs>
     <style type="text/css">
      <![CDATA[
       .fil0 {fill:#0EA7FF;fill-rule:nonzero}
      ]]>
     </style>
    </defs>
    <g id="Layer_x0020_1">
     <metadata id="CorelCorpID_0Corel-Layer"/>
     <path class="fil0" d="M5783.23 1106.9l0 1237.98c0,1149.54 88.43,1768.53 -176.87,2122.22 -265.29,442.12 -1149.54,353.69 -1326.4,-176.87 0,-88.43 0,-265.29 0,-353.69l0 -2829.64 -884.25 0c0,795.85 0,1680.1 0,2475.92 0,972.68 176.87,1591.66 1061.11,1945.35 618.99,176.87 1414.81,0 1856.96,-530.55 88.43,-176.86 265.3,-442.12 265.3,-1061.11l0 -2829.64 -795.85 0 0 0.03zm-5747.68 1503.24c265.3,0 530.56,0 884.25,0 88.43,-1237.97 2210.65,-795.85 884.25,795.85 -265.3,265.29 -1680.1,1945.35 -1768.53,2122.22l3006.47 0 0 -795.85c-442.13,0 -884.25,0 -1326.41,0 88.43,-353.69 2122.22,-1680.1 1149.54,-3094.9 -795.84,-1149.54 -2829.63,-618.99 -2829.63,972.68l0.06 0z"/>
    </g>
   </svg>