<svg viewBox="0 0 64 64" xmlns="http://www.w3.org/2000/svg" height="32" fill="#00ddb3" width="32">
    <path fill-rule="evenodd" clip-rule="evenodd" d="M16.1947 0H47.8053C56.7493 0 63.9999 7.25065 63.9999 16.1947V47.8053C63.9999 56.7493 56.7493 64 47.8053 64H16.1947C7.2506 64 0 56.7493 0 47.8053V16.1947C0 7.25065 7.2506 0 16.1947 0ZM30.2792 28.4924C33.5603 22.1766 37.6337 14.3356 48.6489 14.3356C49.0645 14.3352 49.4761 14.4167 49.8601 14.5756C50.2441 14.7344 50.593 14.9674 50.8869 15.2613C51.1807 15.5552 51.4138 15.9041 51.5726 16.2881C51.7314 16.6721 51.813 17.0837 51.8125 17.4993C51.813 17.9149 51.7314 18.3264 51.5726 18.7105C51.4138 19.0945 51.1807 19.4434 50.8869 19.7373C50.593 20.0311 50.2441 20.2642 49.8601 20.423C49.4761 20.5818 49.0645 20.6634 48.6489 20.6629C41.9582 20.6629 39.3623 24.7351 35.8839 31.4388L33.7392 35.4786L33.7304 35.4955C30.4514 41.8134 26.3766 49.6647 15.3543 49.6647C14.5152 49.6647 13.7105 49.3314 13.1172 48.7381C12.5239 48.1448 12.1906 47.3401 12.1906 46.501C12.1906 45.662 12.5239 44.8573 13.1172 44.264C13.7105 43.6707 14.5152 43.3374 15.3543 43.3374C22.045 43.3374 24.6408 39.2652 28.1224 32.5615L30.264 28.5218L30.2792 28.4924Z"></path>
    
</svg>